<svg xmlns="http://www.w3.org/2000/svg"  viewBox="0 0 80 80" width="16px" height="16px"><path fill="#00848d" d="M47.5,4.275v9.269c11.541,3.266,20,13.87,20,26.456c0,15.188-12.312,27.5-27.5,27.5 S12.5,55.188,12.5,40c0-9.902,5.248-18.559,13.1-23.4l6.9,6.9v-19h-19l5.591,5.591C9.665,16.687,3.5,27.621,3.5,40 c0,20.158,16.342,36.5,36.5,36.5S76.5,60.158,76.5,40C76.5,22.413,64.06,7.734,47.5,4.275z"/><path fill="#4e7ab5" d="M40,76.982C19.608,76.982,3.018,60.393,3.018,40c0-11.862,5.719-23.022,15.329-29.972 l-6.011-6.011h20.647v20.647l-7.452-7.452C17.666,22.209,12.982,30.699,12.982,40c0,14.897,12.12,27.018,27.018,27.018 S67.018,54.897,67.018,40c0-12.03-8.08-22.719-19.649-25.992l-0.351-0.099V3.681l0.581,0.121 C64.625,7.359,76.982,22.583,76.982,40C76.982,60.393,60.392,76.982,40,76.982z M14.665,4.982l5.174,5.174l-0.471,0.33 C9.734,17.229,3.982,28.262,3.982,40C3.982,59.86,20.14,76.018,40,76.018S76.018,59.86,76.018,40 c0-16.764-11.754-31.441-28.035-35.127v8.309c11.794,3.506,20,14.481,20,26.818c0,15.43-12.553,27.982-27.982,27.982 S12.018,55.43,12.018,40c0-9.765,4.983-18.666,13.33-23.811l0.324-0.199l6.346,6.345V4.982H14.665z"/></svg>